PathFileType	4	(X/Y/Z)	C:\Users\dbl\Desktop\20210112\20210112\bx_n_0_901.trc
DataRate	CameraRate	NumFrames	NumMarkers	Units	OrigDataRate	OrigDataStartFrame	OrigNumFrames
50.00	50.00	       6	43	mm	50.00	232	       370
Frame#	Time	Top.Head			R.Acromium			L.Acromium			Sternum			R.ASIS			L.ASIS			V.Sacral			R.Thigh.Upper			R.Thigh.Front			R.Thigh.Rear			R.Knee.Lat			R.Knee.Med			R.Shank.Upper			R.Shank.Front			R.Shank.Rear			R.Ankle.Lat			R.Midfoot.Lat			R.Toe.Lat			R.Toe.Tip			R.Toe.Med			R.Ankle.Med			R.Midfoot.Sup			R.Heel			L.Thigh.Upper			L.Thigh.Front			L.Thigh.Rear			L.Knee.Lat			L.Knee.Med			L.Shank.Upper			L.Shank.Front			L.Shank.Rear			L.Ankle.Lat			L.Midfoot.Lat			L.Toe.Lat			L.Toe.Tip			L.Toe.Med			L.Ankle.Med			L.Midfoot.Sup			L.Heel			origin1 front left			origin2 front right			origin 3 back right			origin 4 back leftt			
		X1	Y1	Z1	X2	Y2	Z2	X3	Y3	Z3	X4	Y4	Z4	X5	Y5	Z5	X6	Y6	Z6	X7	Y7	Z7	X8	Y8	Z8	X9	Y9	Z9	X10	Y10	Z10	X11	Y11	Z11	X12	Y12	Z12	X13	Y13	Z13	X14	Y14	Z14	X15	Y15	Z15	X16	Y16	Z16	X17	Y17	Z17	X18	Y18	Z18	X19	Y19	Z19	X20	Y20	Z20	X21	Y21	Z21	X22	Y22	Z22	X23	Y23	Z23	X24	Y24	Z24	X25	Y25	Z25	X26	Y26	Z26	X27	Y27	Z27	X28	Y28	Z28	X29	Y29	Z29	X30	Y30	Z30	X31	Y31	Z31	X32	Y32	Z32	X33	Y33	Z33	X34	Y34	Z34	X35	Y35	Z35	X36	Y36	Z36	X37	Y37	Z37	X38	Y38	Z38	X39	Y39	Z39	X40	Y40	Z40	X41	Y41	Z41	X42	Y42	Z42	X43	Y43	Z43	

232	4.620	-53.65826	118.28535	1217.05688	-330.63904	-75.95897	1094.25696	-343.00531	275.71878	1111.10205	-462.98581	82.23745	961.87915	-759.57922	-16.60479	953.24219	-722.10327	212.12236	963.00061	-886.75793	88.82369	1111.89282	-821.29346	-75.46600	864.83051	-733.61340	-7.20527	802.84302	-816.41937	-69.38250	747.41882	-800.99048	-37.07184	609.01007	-782.76202	72.26405	566.84613	-799.29608	-34.97647	562.80908	-741.60333	15.14652	524.99451	-823.43896	-50.02783	476.73602	-763.31830	-22.29106	204.12328	-647.02966	-66.77441	161.55661	-605.52570	-72.77970	155.81587	-549.53937	-21.84729	162.12474	-600.75311	30.22909	166.76581	-675.47223	52.19531	161.37814	-727.54626	67.06947	219.67708	-794.65912	35.67090	173.54858	-833.39044	286.15488	870.42041	-728.54498	213.52077	794.19250	-812.24255	278.85648	734.84204	-828.35284	257.28198	626.30298	-778.21680	140.99045	571.56458	-805.06543	248.05891	568.61420	-747.86572	201.49672	537.51459	-827.32880	263.66568	489.70364	-768.11780	229.55942	203.32959	-651.23041	290.19275	157.43918	-614.56812	295.89679	158.58757	-553.67474	240.66245	164.87930	-590.39569	206.44337	172.93224	-721.49890	152.40535	220.89087	-676.63831	168.34747	160.75493	-797.17273	183.68620	182.03996	-528.07733	303.93417	146.48289	-517.86371	-72.91608	143.14694	-875.87885	-78.68060	141.11328	-882.61615	296.08481	144.61383	
233	4.640	-56.42987	117.46780	1227.04895	-332.07498	-76.40114	1100.42529	-344.14069	275.34024	1117.28662	-463.98450	82.72566	966.94049	-758.60046	-16.08344	954.41516	-721.77521	212.76547	964.60358	-887.88788	88.98277	1111.54028	-821.47510	-75.29247	864.84210	-733.88000	-7.23589	802.82587	-816.73877	-69.32957	747.37653	-801.32434	-36.99402	608.91547	-783.01654	72.24895	566.61816	-799.59583	-34.90186	562.66656	-741.91278	15.11399	524.89050	-823.73212	-50.03744	476.65866	-763.36591	-22.27423	204.05928	-647.05719	-66.81318	161.52936	-605.56232	-72.79623	155.82648	-549.58868	-21.89081	162.11446	-600.76068	30.19431	166.74837	-675.48035	52.16644	161.36461	-727.58905	66.87855	219.62776	-794.68866	35.72578	173.46548	-833.48901	286.10294	870.40405	-728.66956	213.71945	794.32269	-812.48059	278.98965	734.85260	-828.42480	257.28387	626.18622	-778.41138	141.16325	571.52014	-805.33478	248.15051	568.54388	-748.05255	201.68571	537.59399	-827.59058	263.81003	489.70044	-768.15662	229.57649	203.30157	-651.24792	290.23868	157.40233	-614.61786	296.01172	158.56192	-553.70581	240.65898	164.88567	-590.37433	206.55792	172.95534	-721.38843	152.44292	220.97540	-676.65930	168.41222	160.79161	-797.23083	183.77887	181.93929	-528.07635	303.94101	146.50200	-517.83447	-72.91196	143.17253	-875.86871	-78.68230	141.09253	-882.63879	296.06970	144.59912	
234	4.660	-59.35339	116.65272	1237.24048	-333.56311	-76.88610	1106.86218	-345.40921	274.96671	1123.60034	-464.99799	83.23431	972.13049	-757.58746	-15.57073	955.64539	-721.45013	213.42609	966.27179	-889.04175	89.17411	1111.21375	-821.74011	-75.12203	864.84271	-734.13873	-7.27035	802.79492	-817.03674	-69.26442	747.31909	-801.71747	-37.01537	608.88080	-783.30249	72.27426	566.44391	-799.90930	-34.88082	562.54321	-742.24969	15.05649	524.76477	-824.03809	-49.93204	476.50320	-763.39343	-22.24672	203.99699	-647.06830	-66.85944	161.46529	-605.60986	-72.83540	155.83722	-549.61121	-21.91999	162.09770	-600.75323	30.13793	166.75075	-675.45892	52.14465	161.33960	-727.59943	66.70141	219.59084	-794.71655	35.77411	173.41386	-833.54456	286.05869	870.36572	-728.87134	213.86992	794.37714	-812.70306	279.05887	734.79541	-828.53809	257.28220	625.89368	-778.65845	141.40100	571.45935	-805.65564	248.28427	568.49640	-748.25421	201.85783	537.63525	-827.86389	263.95090	489.73083	-768.21527	229.61960	203.32181	-651.26453	290.28299	157.36090	-614.66760	296.13873	158.50819	-553.73224	240.64711	164.89528	-590.36957	206.63452	172.94865	-721.32520	152.50060	221.04942	-676.66266	168.49229	160.84746	-797.28436	183.85599	181.84148	-528.10059	303.92535	146.47696	-517.82458	-72.89666	143.16949	-875.86316	-78.67976	141.10925	-882.63318	296.05127	144.59755	
235	4.680	-62.39539	115.85275	1247.66968	-335.06839	-77.38352	1113.51550	-346.84802	274.60818	1130.01465	-466.02609	83.76365	977.44855	-756.54022	-15.06728	956.93353	-721.12854	214.10420	968.00562	-890.15240	89.38506	1110.91492	-822.05182	-74.92218	864.83728	-734.36523	-7.27025	802.74713	-817.31830	-69.16055	747.24554	-802.15240	-37.14810	608.90118	-783.65125	72.29996	566.33051	-800.27570	-34.89682	562.42499	-742.59058	14.94372	524.66650	-824.35284	-49.73338	476.26260	-763.40985	-22.21260	203.94234	-647.07648	-66.92254	161.35666	-605.66522	-72.90257	155.84541	-549.61163	-21.95133	162.07890	-600.73511	30.05960	166.77066	-675.41974	52.13361	161.31104	-727.60870	66.59074	219.57378	-794.73932	35.80319	173.41417	-833.52411	286.05161	870.31787	-729.07275	213.97147	794.31659	-812.87225	279.07526	734.69507	-828.72974	257.28552	625.54596	-778.87311	141.64339	571.40869	-805.99799	248.44431	568.45758	-748.47076	202.01579	537.63806	-828.12463	264.03912	489.74905	-768.29431	229.67572	203.38449	-651.28247	290.31549	157.30550	-614.71075	296.26440	158.43475	-553.75183	240.64203	164.91867	-590.38873	206.65829	172.92911	-721.29755	152.55872	221.12646	-676.64771	168.58228	160.89551	-797.34625	183.91423	181.76894	-528.13556	303.88870	146.43311	-517.83508	-72.88190	143.14798	-875.85797	-78.66196	141.13896	-882.60895	296.03644	144.60670	
236	4.700	-65.56671	115.07170	1258.35168	-336.58600	-77.84492	1120.32227	-348.41211	274.25397	1136.56274	-467.06854	84.31392	982.89380	-755.45892	-14.57369	958.28015	-720.81110	214.79988	969.80566	-891.16913	89.59445	1110.63916	-822.35413	-74.71526	864.82770	-734.53058	-7.21871	802.71252	-817.58136	-69.02233	747.16425	-802.57709	-37.31994	608.92786	-784.06079	72.29234	566.22620	-800.67828	-34.92578	562.30701	-742.91254	14.79638	524.63165	-824.66132	-49.55491	476.00641	-763.43030	-22.17846	203.89764	-647.10474	-67.00115	161.23981	-605.72980	-72.98942	155.85269	-549.60675	-21.99097	162.06262	-600.72455	29.95246	166.79616	-675.39844	52.13108	161.30222	-727.65997	66.55032	219.58101	-794.76941	35.81318	173.45840	-833.42700	286.09659	870.28790	-729.18890	214.04424	794.19666	-812.96979	279.07571	734.60071	-828.99756	257.30704	625.27496	-779.01074	141.83934	571.34192	-806.30902	248.61177	568.42108	-748.67548	202.15561	537.60144	-828.39197	264.04214	489.69678	-768.37408	229.72365	203.45055	-651.31946	290.32999	157.23320	-614.75012	296.38733	158.35359	-553.77136	240.66823	164.94911	-590.41998	206.64645	172.91209	-721.28705	152.60812	221.20676	-676.63513	168.65858	160.93468	-797.41864	183.95702	181.72707	-528.15405	303.84756	146.41823	-517.85834	-72.88720	143.12697	-875.86304	-78.64458	141.16042	-882.59326	296.02722	144.61870	
237	4.720	-68.90808	114.31728	1269.26758	-338.18771	-78.22523	1127.27124	-350.01318	273.91940	1143.30322	-468.12506	84.88538	988.46545	-754.34357	-14.09056	959.68579	-720.49841	215.51315	971.67230	-892.09595	89.79726	1110.37048	-822.60437	-74.54066	864.82532	-734.62317	-7.12500	802.70319	-817.80902	-68.88274	747.10632	-802.94977	-37.42940	608.89630	-784.47028	72.25224	566.10370	-801.04376	-34.95788	562.20923	-743.20605	14.64917	524.64020	-824.93445	-49.52679	475.82526	-763.47284	-22.15375	203.85289	-647.16138	-67.08617	161.15051	-605.78839	-73.07427	155.84874	-549.61224	-22.03608	162.04831	-600.73853	29.81764	166.83374	-675.42053	52.13604	161.33287	-727.75946	66.55714	219.60861	-794.81781	35.80890	173.51181	-833.27014	286.18335	870.28741	-729.19611	214.10826	794.10608	-813.00659	279.09167	734.54773	-829.28607	257.35342	625.14819	-779.09760	142.00455	571.21179	-806.54608	248.78014	568.41986	-748.85114	202.29552	537.53912	-828.69543	263.97427	489.56039	-768.43970	229.75208	203.48213	-651.38507	290.33429	157.15721	-614.78967	296.49393	158.28687	-553.80383	240.72968	164.96500	-590.47064	206.62769	172.89069	-721.27728	152.65057	221.27805	-676.64954	168.70372	160.97365	-797.48151	183.98581	181.70665	-528.14478	303.83020	146.44571	-517.88544	-72.92304	143.11720	-875.88953	-78.64756	141.18431	-882.59540	296.02240	144.62820	
